<mxfile host="" modified="2020-05-24T13:55:53.068Z" agent="5.0 (Windows NT 10.0; Win64; x64) AppleWebKit/537.36 (KHTML, like Gecko) Code/1.45.1 Chrome/78.0.3904.130 Electron/7.2.4 Safari/537.36" etag="Iyp-H0UyFWDUwbh4QqgY" version="13.1.3">
    <diagram id="6hGFLwfOUW9BJ-s0fimq" name="DtoClassFactory">
        <mxGraphModel dx="1678" dy="1017" grid="1" gridSize="10" guides="1" tooltips="1" connect="1" arrows="1" fold="1" page="1" pageScale="1" pageWidth="1169" pageHeight="1654" background="none" math="0" shadow="0">
            <root>
                <mxCell id="0"/>
                <mxCell id="1" parent="0"/>
                <mxCell id="oeYjCA9e_BF36s450o8c-68" value="Package : DtoClassFactory" style="verticalAlign=top;align=left;spacingTop=8;spacingLeft=2;spacingRight=12;shape=cube;size=10;direction=south;fontStyle=4;html=1;strokeColor=#F0F0F0;strokeWidth=1;" vertex="1" parent="1">
                    <mxGeometry x="50" y="700" width="1100" height="400" as="geometry"/>
                </mxCell>
                <mxCell id="oeYjCA9e_BF36s450o8c-51" value="Package : Factory" style="verticalAlign=top;align=left;spacingTop=8;spacingLeft=2;spacingRight=12;shape=cube;size=10;direction=south;fontStyle=4;html=1;strokeColor=#F0F0F0;strokeWidth=1;" vertex="1" parent="1">
                    <mxGeometry x="130" y="30" width="920" height="640" as="geometry"/>
                </mxCell>
                <mxCell id="oeYjCA9e_BF36s450o8c-20" value="Extends" style="endArrow=block;endSize=16;endFill=0;html=1;exitX=0.5;exitY=0;exitDx=0;exitDy=0;entryX=0;entryY=0.5;entryDx=0;entryDy=0;" edge="1" parent="1" source="oeYjCA9e_BF36s450o8c-16" target="9">
                    <mxGeometry x="-0.2335" width="160" relative="1" as="geometry">
                        <mxPoint x="372" y="170" as="sourcePoint"/>
                        <mxPoint x="532" y="170" as="targetPoint"/>
                        <Array as="points">
                            <mxPoint x="250" y="100"/>
                        </Array>
                        <mxPoint as="offset"/>
                    </mxGeometry>
                </mxCell>
                <mxCell id="oeYjCA9e_BF36s450o8c-25" value="Extends" style="endArrow=block;endSize=16;endFill=0;html=1;exitX=0.5;exitY=0;exitDx=0;exitDy=0;" edge="1" parent="1" source="oeYjCA9e_BF36s450o8c-21">
                    <mxGeometry x="-0.2335" width="160" relative="1" as="geometry">
                        <mxPoint x="466" y="247" as="sourcePoint"/>
                        <mxPoint x="561" y="122" as="targetPoint"/>
                        <Array as="points"/>
                        <mxPoint as="offset"/>
                    </mxGeometry>
                </mxCell>
                <mxCell id="oeYjCA9e_BF36s450o8c-30" value="Extends" style="endArrow=block;endSize=16;endFill=0;html=1;exitX=0.5;exitY=0;exitDx=0;exitDy=0;entryX=1;entryY=0.5;entryDx=0;entryDy=0;" edge="1" parent="1" source="oeYjCA9e_BF36s450o8c-26" target="9">
                    <mxGeometry x="-0.2368" width="160" relative="1" as="geometry">
                        <mxPoint x="783.28" y="190" as="sourcePoint"/>
                        <mxPoint x="612" y="122" as="targetPoint"/>
                        <Array as="points">
                            <mxPoint x="910" y="103"/>
                        </Array>
                        <mxPoint as="offset"/>
                    </mxGeometry>
                </mxCell>
                <mxCell id="oeYjCA9e_BF36s450o8c-35" value="Extends" style="endArrow=block;endSize=16;endFill=0;html=1;exitX=0.5;exitY=0;exitDx=0;exitDy=0;entryX=0.201;entryY=1.034;entryDx=0;entryDy=0;entryPerimeter=0;" edge="1" parent="1" source="oeYjCA9e_BF36s450o8c-31" target="9">
                    <mxGeometry x="0.0482" width="160" relative="1" as="geometry">
                        <mxPoint x="433" y="291" as="sourcePoint"/>
                        <mxPoint x="432" y="223" as="targetPoint"/>
                        <Array as="points">
                            <mxPoint x="390" y="180"/>
                        </Array>
                        <mxPoint as="offset"/>
                    </mxGeometry>
                </mxCell>
                <mxCell id="oeYjCA9e_BF36s450o8c-40" value="Extends" style="endArrow=block;endSize=16;endFill=0;html=1;exitX=0.5;exitY=0;exitDx=0;exitDy=0;entryX=0.854;entryY=0.989;entryDx=0;entryDy=0;entryPerimeter=0;" edge="1" parent="1" source="oeYjCA9e_BF36s450o8c-36" target="9">
                    <mxGeometry x="0.1728" width="160" relative="1" as="geometry">
                        <mxPoint x="686.5" y="308" as="sourcePoint"/>
                        <mxPoint x="685.5" y="240" as="targetPoint"/>
                        <Array as="points">
                            <mxPoint x="750" y="170"/>
                        </Array>
                        <mxPoint as="offset"/>
                    </mxGeometry>
                </mxCell>
                <mxCell id="oeYjCA9e_BF36s450o8c-45" value="Use" style="endArrow=open;endSize=12;dashed=1;html=1;exitX=0.5;exitY=0;exitDx=0;exitDy=0;entryX=0.5;entryY=1;entryDx=0;entryDy=0;" edge="1" parent="1" source="oeYjCA9e_BF36s450o8c-41" target="oeYjCA9e_BF36s450o8c-21">
                    <mxGeometry x="0.0899" y="1" width="160" relative="1" as="geometry">
                        <mxPoint x="272" y="490" as="sourcePoint"/>
                        <mxPoint x="559" y="390" as="targetPoint"/>
                        <Array as="points"/>
                        <mxPoint as="offset"/>
                    </mxGeometry>
                </mxCell>
                <mxCell id="oeYjCA9e_BF36s450o8c-47" value="Use" style="endArrow=open;endSize=12;dashed=1;html=1;exitX=0.75;exitY=0;exitDx=0;exitDy=0;entryX=0.5;entryY=1;entryDx=0;entryDy=0;" edge="1" parent="1" source="oeYjCA9e_BF36s450o8c-41" target="oeYjCA9e_BF36s450o8c-36">
                    <mxGeometry x="0.4367" width="160" relative="1" as="geometry">
                        <mxPoint x="672" y="644" as="sourcePoint"/>
                        <mxPoint x="672" y="420" as="targetPoint"/>
                        <Array as="points">
                            <mxPoint x="690" y="440"/>
                        </Array>
                        <mxPoint as="offset"/>
                    </mxGeometry>
                </mxCell>
                <mxCell id="oeYjCA9e_BF36s450o8c-48" value="Use" style="endArrow=open;endSize=12;dashed=1;html=1;exitX=1;exitY=0.5;exitDx=0;exitDy=0;entryX=0.519;entryY=1.007;entryDx=0;entryDy=0;entryPerimeter=0;" edge="1" parent="1" source="oeYjCA9e_BF36s450o8c-58" target="oeYjCA9e_BF36s450o8c-27">
                    <mxGeometry x="0.5327" width="160" relative="1" as="geometry">
                        <mxPoint x="744" y="614.9999999999998" as="sourcePoint"/>
                        <mxPoint x="912.0799999999999" y="296.58400000000006" as="targetPoint"/>
                        <Array as="points">
                            <mxPoint x="913" y="500"/>
                        </Array>
                        <mxPoint as="offset"/>
                    </mxGeometry>
                </mxCell>
                <mxCell id="oeYjCA9e_BF36s450o8c-49" value="Use" style="endArrow=open;endSize=12;dashed=1;html=1;exitX=0;exitY=0.5;exitDx=0;exitDy=0;entryX=0.5;entryY=1;entryDx=0;entryDy=0;" edge="1" parent="1" source="oeYjCA9e_BF36s450o8c-58" target="oeYjCA9e_BF36s450o8c-16">
                    <mxGeometry x="0.0899" y="1" width="160" relative="1" as="geometry">
                        <mxPoint x="379.27199999999993" y="603.9300000000001" as="sourcePoint"/>
                        <mxPoint x="299.0799999999999" y="330.00399999999996" as="targetPoint"/>
                        <Array as="points">
                            <mxPoint x="250" y="520"/>
                        </Array>
                        <mxPoint as="offset"/>
                    </mxGeometry>
                </mxCell>
                <mxCell id="oeYjCA9e_BF36s450o8c-50" value="Use" style="endArrow=open;endSize=12;dashed=1;html=1;exitX=0.25;exitY=0;exitDx=0;exitDy=0;entryX=0.5;entryY=1;entryDx=0;entryDy=0;" edge="1" parent="1" source="oeYjCA9e_BF36s450o8c-41" target="oeYjCA9e_BF36s450o8c-31">
                    <mxGeometry x="0.3411" width="160" relative="1" as="geometry">
                        <mxPoint x="421.9999999999998" y="707" as="sourcePoint"/>
                        <mxPoint x="421.9999999999998" y="483.0000000000001" as="targetPoint"/>
                        <Array as="points">
                            <mxPoint x="410" y="440"/>
                        </Array>
                        <mxPoint as="offset"/>
                    </mxGeometry>
                </mxCell>
                <mxCell id="6" value="Component" style="swimlane;fontStyle=3;align=center;verticalAlign=top;childLayout=stackLayout;horizontal=1;startSize=26;horizontalStack=0;resizeParent=1;resizeParentMax=0;resizeLast=0;collapsible=1;marginBottom=0;fillColor=#fa6800;strokeColor=#C73500;labelBackgroundColor=none;fontColor=#000000;" vertex="1" parent="1">
                    <mxGeometry x="482" y="60" width="160" height="60" as="geometry"/>
                </mxCell>
                <mxCell id="9" value="+ createResource() : String&#10;" style="text;fillColor=none;align=left;verticalAlign=top;spacingLeft=4;spacingRight=4;overflow=hidden;rotatable=0;points=[[0,0.5],[1,0.5]];portConstraint=eastwest;fontStyle=2" vertex="1" parent="6">
                    <mxGeometry y="26" width="160" height="34" as="geometry"/>
                </mxCell>
                <mxCell id="oeYjCA9e_BF36s450o8c-26" value="ClassDescription" style="swimlane;fontStyle=3;align=center;verticalAlign=top;childLayout=stackLayout;horizontal=1;startSize=26;horizontalStack=0;resizeParent=1;resizeParentMax=0;resizeLast=0;collapsible=1;marginBottom=0;strokeColor=#C73500;strokeWidth=1;fillColor=#fa6800;fontColor=#000000;" vertex="1" parent="1">
                    <mxGeometry x="830" y="169" width="160" height="80" as="geometry"/>
                </mxCell>
                <mxCell id="oeYjCA9e_BF36s450o8c-27" value="# description - String&#10;# creator - String&#10;# version - String" style="text;strokeColor=none;fillColor=none;align=left;verticalAlign=top;spacingLeft=4;spacingRight=4;overflow=hidden;rotatable=0;points=[[0,0.5],[1,0.5]];portConstraint=eastwest;" vertex="1" parent="oeYjCA9e_BF36s450o8c-26">
                    <mxGeometry y="26" width="160" height="54" as="geometry"/>
                </mxCell>
                <mxCell id="oeYjCA9e_BF36s450o8c-16" value="Field" style="swimlane;fontStyle=3;align=center;verticalAlign=top;childLayout=stackLayout;horizontal=1;startSize=26;horizontalStack=0;resizeParent=1;resizeParentMax=0;resizeLast=0;collapsible=1;marginBottom=0;strokeColor=#C73500;strokeWidth=1;fillColor=#fa6800;fontColor=#000000;" vertex="1" parent="1">
                    <mxGeometry x="170" y="171" width="160" height="90" as="geometry"/>
                </mxCell>
                <mxCell id="oeYjCA9e_BF36s450o8c-17" value="# dataType : String&#10;# variableName : String&#10;# initialValue : String" style="text;strokeColor=none;fillColor=none;align=left;verticalAlign=top;spacingLeft=4;spacingRight=4;overflow=hidden;rotatable=0;points=[[0,0.5],[1,0.5]];portConstraint=eastwest;" vertex="1" parent="oeYjCA9e_BF36s450o8c-16">
                    <mxGeometry y="26" width="160" height="64" as="geometry"/>
                </mxCell>
                <mxCell id="oeYjCA9e_BF36s450o8c-31" value="Parameter" style="swimlane;fontStyle=3;align=center;verticalAlign=top;childLayout=stackLayout;horizontal=1;startSize=26;horizontalStack=0;resizeParent=1;resizeParentMax=0;resizeLast=0;collapsible=1;marginBottom=0;strokeColor=#C73500;strokeWidth=1;fillColor=#fa6800;fontColor=#000000;" vertex="1" parent="1">
                    <mxGeometry x="290" y="330" width="160" height="70" as="geometry"/>
                </mxCell>
                <mxCell id="oeYjCA9e_BF36s450o8c-32" value="# dataType : String&#10;# variableName : String" style="text;strokeColor=none;fillColor=none;align=left;verticalAlign=top;spacingLeft=4;spacingRight=4;overflow=hidden;rotatable=0;points=[[0,0.5],[1,0.5]];portConstraint=eastwest;" vertex="1" parent="oeYjCA9e_BF36s450o8c-31">
                    <mxGeometry y="26" width="160" height="44" as="geometry"/>
                </mxCell>
                <mxCell id="oeYjCA9e_BF36s450o8c-67" value="Extends" style="endArrow=block;endSize=16;endFill=0;html=1;exitX=0.5;exitY=0;exitDx=0;exitDy=0;entryX=0.148;entryY=1.07;entryDx=0;entryDy=0;entryPerimeter=0;" edge="1" parent="1" source="oeYjCA9e_BF36s450o8c-52" target="oeYjCA9e_BF36s450o8c-17">
                    <mxGeometry x="-0.1625" width="160" relative="1" as="geometry">
                        <mxPoint x="270" y="790" as="sourcePoint"/>
                        <mxPoint x="502" y="722" as="targetPoint"/>
                        <Array as="points">
                            <mxPoint x="160" y="330"/>
                        </Array>
                        <mxPoint as="offset"/>
                    </mxGeometry>
                </mxCell>
                <mxCell id="oeYjCA9e_BF36s450o8c-69" value="Extends" style="endArrow=block;endSize=16;endFill=0;html=1;exitX=0.29;exitY=-0.014;exitDx=0;exitDy=0;entryX=0;entryY=0.5;entryDx=0;entryDy=0;exitPerimeter=0;" edge="1" parent="1" source="oeYjCA9e_BF36s450o8c-59" target="oeYjCA9e_BF36s450o8c-32">
                    <mxGeometry x="-0.1625" width="160" relative="1" as="geometry">
                        <mxPoint x="440" y="947" as="sourcePoint"/>
                        <mxPoint x="340" y="390" as="targetPoint"/>
                        <Array as="points">
                            <mxPoint x="210" y="610"/>
                            <mxPoint x="210" y="378"/>
                        </Array>
                        <mxPoint as="offset"/>
                    </mxGeometry>
                </mxCell>
                <mxCell id="oeYjCA9e_BF36s450o8c-70" value="Extends" style="endArrow=block;endSize=16;endFill=0;html=1;exitX=0.5;exitY=0;exitDx=0;exitDy=0;entryX=0.804;entryY=1.059;entryDx=0;entryDy=0;entryPerimeter=0;" edge="1" parent="1" source="oeYjCA9e_BF36s450o8c-65" target="oeYjCA9e_BF36s450o8c-27">
                    <mxGeometry x="-0.4625" y="1" width="160" relative="1" as="geometry">
                        <mxPoint x="1140" y="862" as="sourcePoint"/>
                        <mxPoint x="970" y="450" as="targetPoint"/>
                        <Array as="points">
                            <mxPoint x="959" y="610"/>
                            <mxPoint x="960" y="310"/>
                        </Array>
                        <mxPoint as="offset"/>
                    </mxGeometry>
                </mxCell>
                <mxCell id="oeYjCA9e_BF36s450o8c-36" value="Process" style="swimlane;fontStyle=3;align=center;verticalAlign=top;childLayout=stackLayout;horizontal=1;startSize=26;horizontalStack=0;resizeParent=1;resizeParentMax=0;resizeLast=0;collapsible=1;marginBottom=0;strokeColor=#C73500;strokeWidth=1;fillColor=#fa6800;fontColor=#000000;" vertex="1" parent="1">
                    <mxGeometry x="670" y="348" width="160" height="52" as="geometry"/>
                </mxCell>
                <mxCell id="oeYjCA9e_BF36s450o8c-37" value="# variableName : String" style="text;strokeColor=none;fillColor=none;align=left;verticalAlign=top;spacingLeft=4;spacingRight=4;overflow=hidden;rotatable=0;points=[[0,0.5],[1,0.5]];portConstraint=eastwest;" vertex="1" parent="oeYjCA9e_BF36s450o8c-36">
                    <mxGeometry y="26" width="160" height="26" as="geometry"/>
                </mxCell>
                <mxCell id="oeYjCA9e_BF36s450o8c-74" value="Extends" style="endArrow=block;endSize=16;endFill=0;html=1;exitX=0.385;exitY=0;exitDx=0;exitDy=0;entryX=0.168;entryY=1.036;entryDx=0;entryDy=0;entryPerimeter=0;exitPerimeter=0;" edge="1" parent="1" source="oeYjCA9e_BF36s450o8c-71" target="oeYjCA9e_BF36s450o8c-58">
                    <mxGeometry x="0.3405" width="160" relative="1" as="geometry">
                        <mxPoint x="642" y="928.37" as="sourcePoint"/>
                        <mxPoint x="510.6400000000001" y="699.9960000000001" as="targetPoint"/>
                        <Array as="points">
                            <mxPoint x="441" y="850"/>
                        </Array>
                        <mxPoint as="offset"/>
                    </mxGeometry>
                </mxCell>
                <mxCell id="oeYjCA9e_BF36s450o8c-75" value="Use" style="endArrow=open;endSize=12;dashed=1;html=1;exitX=1;exitY=0.5;exitDx=0;exitDy=0;entryX=0.474;entryY=1.058;entryDx=0;entryDy=0;entryPerimeter=0;" edge="1" parent="1" source="oeYjCA9e_BF36s450o8c-73" target="oeYjCA9e_BF36s450o8c-66">
                    <mxGeometry x="0.0899" y="1" width="160" relative="1" as="geometry">
                        <mxPoint x="780" y="988.4199999999998" as="sourcePoint"/>
                        <mxPoint x="948.0799999999999" y="670.0040000000001" as="targetPoint"/>
                        <Array as="points">
                            <mxPoint x="900" y="960"/>
                        </Array>
                        <mxPoint as="offset"/>
                    </mxGeometry>
                </mxCell>
                <mxCell id="oeYjCA9e_BF36s450o8c-76" value="Use" style="endArrow=open;endSize=12;dashed=1;html=1;exitX=0.75;exitY=0;exitDx=0;exitDy=0;entryX=0.503;entryY=1.005;entryDx=0;entryDy=0;entryPerimeter=0;" edge="1" parent="1" source="oeYjCA9e_BF36s450o8c-71" target="oeYjCA9e_BF36s450o8c-64">
                    <mxGeometry x="0.0899" y="1" width="160" relative="1" as="geometry">
                        <mxPoint x="560" y="1011.25" as="sourcePoint"/>
                        <mxPoint x="751.8399999999997" y="828.7579999999998" as="targetPoint"/>
                        <Array as="points">
                            <mxPoint x="720" y="910"/>
                        </Array>
                        <mxPoint as="offset"/>
                    </mxGeometry>
                </mxCell>
                <mxCell id="oeYjCA9e_BF36s450o8c-77" value="Use" style="endArrow=open;endSize=12;dashed=1;html=1;exitX=0;exitY=0.5;exitDx=0;exitDy=0;entryX=0.478;entryY=1.023;entryDx=0;entryDy=0;entryPerimeter=0;" edge="1" parent="1" source="oeYjCA9e_BF36s450o8c-73" target="oeYjCA9e_BF36s450o8c-55">
                    <mxGeometry x="0.0899" y="1" width="160" relative="1" as="geometry">
                        <mxPoint x="309.9999999999998" y="997.8700000000003" as="sourcePoint"/>
                        <mxPoint x="407.48" y="890.0000000000001" as="targetPoint"/>
                        <Array as="points">
                            <mxPoint x="210" y="960"/>
                        </Array>
                        <mxPoint as="offset"/>
                    </mxGeometry>
                </mxCell>
                <mxCell id="oeYjCA9e_BF36s450o8c-78" value="Use" style="endArrow=open;endSize=12;dashed=1;html=1;exitX=0.25;exitY=0;exitDx=0;exitDy=0;entryX=0.517;entryY=1.023;entryDx=0;entryDy=0;entryPerimeter=0;" edge="1" parent="1" source="oeYjCA9e_BF36s450o8c-71" target="oeYjCA9e_BF36s450o8c-60">
                    <mxGeometry x="0.0899" y="1" width="160" relative="1" as="geometry">
                        <mxPoint x="583.52" y="1011.7" as="sourcePoint"/>
                        <mxPoint x="470" y="828.2980000000002" as="targetPoint"/>
                        <Array as="points">
                            <mxPoint x="360" y="900"/>
                        </Array>
                        <mxPoint as="offset"/>
                    </mxGeometry>
                </mxCell>
                <mxCell id="oeYjCA9e_BF36s450o8c-85" value="Extends" style="endArrow=block;endSize=16;endFill=0;html=1;exitX=0.5;exitY=0;exitDx=0;exitDy=0;entryX=1;entryY=0.5;entryDx=0;entryDy=0;" edge="1" parent="1" source="oeYjCA9e_BF36s450o8c-82" target="oeYjCA9e_BF36s450o8c-22">
                    <mxGeometry x="-0.2413" width="160" relative="1" as="geometry">
                        <mxPoint x="640" y="808" as="sourcePoint"/>
                        <mxPoint x="690" y="240" as="targetPoint"/>
                        <Array as="points">
                            <mxPoint x="870" y="600"/>
                            <mxPoint x="870" y="350"/>
                            <mxPoint x="720" y="268"/>
                        </Array>
                        <mxPoint as="offset"/>
                    </mxGeometry>
                </mxCell>
                <mxCell id="oeYjCA9e_BF36s450o8c-86" value="Use" style="endArrow=open;endSize=12;dashed=1;html=1;exitX=0.5;exitY=0;exitDx=0;exitDy=0;entryX=0.541;entryY=1.094;entryDx=0;entryDy=0;entryPerimeter=0;" edge="1" parent="1" source="oeYjCA9e_BF36s450o8c-71" target="oeYjCA9e_BF36s450o8c-83">
                    <mxGeometry x="0.0899" y="1" width="160" relative="1" as="geometry">
                        <mxPoint x="480.9999999999998" y="940.0000000000002" as="sourcePoint"/>
                        <mxPoint x="352.7199999999998" y="822.5980000000002" as="targetPoint"/>
                        <Array as="points"/>
                        <mxPoint as="offset"/>
                    </mxGeometry>
                </mxCell>
                <mxCell id="oeYjCA9e_BF36s450o8c-41" value="ResourceFactory" style="swimlane;fontStyle=3;align=center;verticalAlign=top;childLayout=stackLayout;horizontal=1;startSize=26;horizontalStack=0;resizeParent=1;resizeParentMax=0;resizeLast=0;collapsible=1;marginBottom=0;strokeColor=#C73500;strokeWidth=1;fillColor=#fa6800;fontColor=#000000;" vertex="1" parent="1">
                    <mxGeometry x="380" y="460" width="364" height="152" as="geometry"/>
                </mxCell>
                <mxCell id="oeYjCA9e_BF36s450o8c-57" value="+ getFactory(String) : Factory" style="text;strokeColor=none;fillColor=none;align=left;verticalAlign=top;spacingLeft=4;spacingRight=4;overflow=hidden;rotatable=0;points=[[0,0.5],[1,0.5]];portConstraint=eastwest;fontStyle=4" vertex="1" parent="oeYjCA9e_BF36s450o8c-41">
                    <mxGeometry y="26" width="364" height="26" as="geometry"/>
                </mxCell>
                <mxCell id="oeYjCA9e_BF36s450o8c-58" value="+ createField(String, String, String) : Field&#10;+ createDescription(String) : Description&#10;+ createClassDescription(String, String, String) : ClassDescription&#10;+ createParameter(String, String) : Parameter&#10;+ createProcess(String) : Process" style="text;strokeColor=none;fillColor=none;align=left;verticalAlign=top;spacingLeft=4;spacingRight=4;overflow=hidden;rotatable=0;points=[[0,0.5],[1,0.5]];portConstraint=eastwest;fontStyle=2" vertex="1" parent="oeYjCA9e_BF36s450o8c-41">
                    <mxGeometry y="52" width="364" height="100" as="geometry"/>
                </mxCell>
                <mxCell id="oeYjCA9e_BF36s450o8c-21" value="Description" style="swimlane;fontStyle=3;align=center;verticalAlign=top;childLayout=stackLayout;horizontal=1;startSize=26;horizontalStack=0;resizeParent=1;resizeParentMax=0;resizeLast=0;collapsible=1;marginBottom=0;strokeColor=#C73500;strokeWidth=1;fillColor=#fa6800;fontColor=#000000;" vertex="1" parent="1">
                    <mxGeometry x="473" y="220" width="178" height="104" as="geometry"/>
                </mxCell>
                <mxCell id="oeYjCA9e_BF36s450o8c-22" value="# description : String&#10;# params : List&lt;String&gt;" style="text;strokeColor=none;fillColor=none;align=left;verticalAlign=top;spacingLeft=4;spacingRight=4;overflow=hidden;rotatable=0;points=[[0,0.5],[1,0.5]];portConstraint=eastwest;" vertex="1" parent="oeYjCA9e_BF36s450o8c-21">
                    <mxGeometry y="26" width="178" height="44" as="geometry"/>
                </mxCell>
                <mxCell id="oeYjCA9e_BF36s450o8c-23" value="" style="line;strokeWidth=1;fillColor=none;align=left;verticalAlign=middle;spacingTop=-1;spacingLeft=3;spacingRight=3;rotatable=0;labelPosition=right;points=[];portConstraint=eastwest;" vertex="1" parent="oeYjCA9e_BF36s450o8c-21">
                    <mxGeometry y="70" width="178" height="8" as="geometry"/>
                </mxCell>
                <mxCell id="oeYjCA9e_BF36s450o8c-56" value="+ add(String) : void" style="text;strokeColor=none;fillColor=none;align=left;verticalAlign=top;spacingLeft=4;spacingRight=4;overflow=hidden;rotatable=0;points=[[0,0.5],[1,0.5]];portConstraint=eastwest;fontStyle=0" vertex="1" parent="oeYjCA9e_BF36s450o8c-21">
                    <mxGeometry y="78" width="178" height="26" as="geometry"/>
                </mxCell>
                <mxCell id="oeYjCA9e_BF36s450o8c-65" value="DtoClassDescription" style="swimlane;fontStyle=1;align=center;verticalAlign=top;childLayout=stackLayout;horizontal=1;startSize=26;horizontalStack=0;resizeParent=1;resizeParentMax=0;resizeLast=0;collapsible=1;marginBottom=0;strokeColor=#006EAF;strokeWidth=1;fillColor=#1ba1e2;fontColor=#000000;" vertex="1" parent="1">
                    <mxGeometry x="860" y="760" width="160" height="52" as="geometry"/>
                </mxCell>
                <mxCell id="oeYjCA9e_BF36s450o8c-66" value="+ createResource() : String" style="text;strokeColor=none;fillColor=none;align=left;verticalAlign=top;spacingLeft=4;spacingRight=4;overflow=hidden;rotatable=0;points=[[0,0.5],[1,0.5]];portConstraint=eastwest;" vertex="1" parent="oeYjCA9e_BF36s450o8c-65">
                    <mxGeometry y="26" width="160" height="26" as="geometry"/>
                </mxCell>
                <mxCell id="oeYjCA9e_BF36s450o8c-52" value="DtoField" style="swimlane;fontStyle=1;align=center;verticalAlign=top;childLayout=stackLayout;horizontal=1;startSize=26;horizontalStack=0;resizeParent=1;resizeParentMax=0;resizeLast=0;collapsible=1;marginBottom=0;strokeColor=#006EAF;strokeWidth=1;fillColor=#1ba1e2;fontColor=#191919;" vertex="1" parent="1">
                    <mxGeometry x="80" y="760" width="160" height="52" as="geometry"/>
                </mxCell>
                <mxCell id="oeYjCA9e_BF36s450o8c-55" value="+ createResource() : String" style="text;strokeColor=none;fillColor=none;align=left;verticalAlign=top;spacingLeft=4;spacingRight=4;overflow=hidden;rotatable=0;points=[[0,0.5],[1,0.5]];portConstraint=eastwest;" vertex="1" parent="oeYjCA9e_BF36s450o8c-52">
                    <mxGeometry y="26" width="160" height="26" as="geometry"/>
                </mxCell>
                <mxCell id="oeYjCA9e_BF36s450o8c-59" value="DtoParameter" style="swimlane;fontStyle=1;align=center;verticalAlign=top;childLayout=stackLayout;horizontal=1;startSize=26;horizontalStack=0;resizeParent=1;resizeParentMax=0;resizeLast=0;collapsible=1;marginBottom=0;strokeColor=#006EAF;strokeWidth=1;fillColor=#1ba1e2;fontColor=#000000;" vertex="1" parent="1">
                    <mxGeometry x="260" y="760" width="160" height="52" as="geometry"/>
                </mxCell>
                <mxCell id="oeYjCA9e_BF36s450o8c-60" value="+ createResource() : String" style="text;strokeColor=none;fillColor=none;align=left;verticalAlign=top;spacingLeft=4;spacingRight=4;overflow=hidden;rotatable=0;points=[[0,0.5],[1,0.5]];portConstraint=eastwest;" vertex="1" parent="oeYjCA9e_BF36s450o8c-59">
                    <mxGeometry y="26" width="160" height="26" as="geometry"/>
                </mxCell>
                <mxCell id="oeYjCA9e_BF36s450o8c-82" value="DtoDescription" style="swimlane;fontStyle=1;align=center;verticalAlign=top;childLayout=stackLayout;horizontal=1;startSize=26;horizontalStack=0;resizeParent=1;resizeParentMax=0;resizeLast=0;collapsible=1;marginBottom=0;strokeColor=#006EAF;strokeWidth=1;fillColor=#1ba1e2;fontColor=#000000;" vertex="1" parent="1">
                    <mxGeometry x="470" y="760" width="160" height="52" as="geometry"/>
                </mxCell>
                <mxCell id="oeYjCA9e_BF36s450o8c-83" value="+ createResource() : String" style="text;strokeColor=none;fillColor=none;align=left;verticalAlign=top;spacingLeft=4;spacingRight=4;overflow=hidden;rotatable=0;points=[[0,0.5],[1,0.5]];portConstraint=eastwest;" vertex="1" parent="oeYjCA9e_BF36s450o8c-82">
                    <mxGeometry y="26" width="160" height="26" as="geometry"/>
                </mxCell>
                <mxCell id="oeYjCA9e_BF36s450o8c-71" value="DtoClassFactory" style="swimlane;fontStyle=1;align=center;verticalAlign=top;childLayout=stackLayout;horizontal=1;startSize=26;horizontalStack=0;resizeParent=1;resizeParentMax=0;resizeLast=0;collapsible=1;marginBottom=0;strokeColor=#006EAF;strokeWidth=1;fillColor=#1ba1e2;fontColor=#000000;" vertex="1" parent="1">
                    <mxGeometry x="380" y="930" width="364" height="126" as="geometry"/>
                </mxCell>
                <mxCell id="oeYjCA9e_BF36s450o8c-73" value="+ createField(String, String, String) : Field&#10;+ createDescription(String) : Description&#10;+ createClassDescription(String, String, String) : ClassDescription&#10;+ createParameter(String, String) : Parameter&#10;+ createProcess(String) : Process" style="text;strokeColor=none;fillColor=none;align=left;verticalAlign=top;spacingLeft=4;spacingRight=4;overflow=hidden;rotatable=0;points=[[0,0.5],[1,0.5]];portConstraint=eastwest;fontStyle=0" vertex="1" parent="oeYjCA9e_BF36s450o8c-71">
                    <mxGeometry y="26" width="364" height="100" as="geometry"/>
                </mxCell>
                <mxCell id="oeYjCA9e_BF36s450o8c-63" value="DtoProcess" style="swimlane;fontStyle=1;align=center;verticalAlign=top;childLayout=stackLayout;horizontal=1;startSize=26;horizontalStack=0;resizeParent=1;resizeParentMax=0;resizeLast=0;collapsible=1;marginBottom=0;strokeColor=#006EAF;strokeWidth=1;fillColor=#1ba1e2;fontColor=#000000;" vertex="1" parent="1">
                    <mxGeometry x="670" y="760" width="160" height="52" as="geometry"/>
                </mxCell>
                <mxCell id="oeYjCA9e_BF36s450o8c-64" value="+ createResource() : String" style="text;strokeColor=none;fillColor=none;align=left;verticalAlign=top;spacingLeft=4;spacingRight=4;overflow=hidden;rotatable=0;points=[[0,0.5],[1,0.5]];portConstraint=eastwest;" vertex="1" parent="oeYjCA9e_BF36s450o8c-63">
                    <mxGeometry y="26" width="160" height="26" as="geometry"/>
                </mxCell>
                <mxCell id="oeYjCA9e_BF36s450o8c-87" value="Extends" style="endArrow=block;endSize=16;endFill=0;html=1;exitX=0.5;exitY=0;exitDx=0;exitDy=0;entryX=0.999;entryY=0.229;entryDx=0;entryDy=0;entryPerimeter=0;" edge="1" parent="1" source="oeYjCA9e_BF36s450o8c-63" target="oeYjCA9e_BF36s450o8c-37">
                    <mxGeometry x="-0.2413" width="160" relative="1" as="geometry">
                        <mxPoint x="560" y="770.0000000000002" as="sourcePoint"/>
                        <mxPoint x="661" y="278" as="targetPoint"/>
                        <Array as="points">
                            <mxPoint x="900" y="630"/>
                            <mxPoint x="900" y="430"/>
                            <mxPoint x="900" y="380"/>
                        </Array>
                        <mxPoint as="offset"/>
                    </mxGeometry>
                </mxCell>
                <mxCell id="oeYjCA9e_BF36s450o8c-88" value="&lt;br&gt;&lt;br&gt;&lt;br&gt;" style="text;html=1;align=center;verticalAlign=middle;resizable=0;points=[];autosize=1;fontColor=#000000;" vertex="1" parent="1">
                    <mxGeometry x="1301" y="462" width="20" height="50" as="geometry"/>
                </mxCell>
            </root>
        </mxGraphModel>
    </diagram>
</mxfile>